<svg width="19" height="22" viewBox="0 0 19 22" fill="none" xmlns="http://www.w3.org/2000/svg">
<path d="M12.3255 7.813L11.9664 16.8963M6.99618 16.8963L6.63701 7.813M16.9843 4.57329C17.3394 4.62577 17.6923 4.68128 18.0452 4.74083M16.9843 4.57329L15.8757 18.5848C15.8304 19.1552 15.5654 19.6881 15.1335 20.0767C14.7016 20.4654 14.1348 20.6812 13.5463 20.681H5.41626C4.82778 20.6812 4.26093 20.4654 3.82905 20.0767C3.39717 19.6881 3.13211 19.1552 3.08686 18.5848L1.97822 4.57329M16.9843 4.57329C15.7863 4.39719 14.582 4.26355 13.374 4.17262M1.97822 4.57329C1.6232 4.62476 1.27027 4.68027 0.917328 4.73982M1.97822 4.57329C3.17627 4.39719 4.38052 4.26355 5.58857 4.17262M13.374 4.17262V3.24814C13.374 2.05722 12.4294 1.06411 11.2044 1.02677C10.056 0.991078 8.9066 0.991078 7.75811 1.02677C6.5332 1.06411 5.58857 2.05823 5.58857 3.24814V4.17262M13.374 4.17262C10.7827 3.97791 8.17985 3.97791 5.58857 4.17262" stroke="#FF2929" stroke-width="1.5" stroke-linecap="round" stroke-linejoin="round"/>
</svg>
