<svg width="24" height="21" viewBox="0 0 24 21" fill="none" xmlns="http://www.w3.org/2000/svg">
<path d="M16.8403 3.15354L18.759 1.46512C19.159 1.11336 19.7015 0.915741 20.2671 0.915741C20.8328 0.915741 21.3753 1.11336 21.7753 1.46512C22.1752 1.81689 22.3999 2.29398 22.3999 2.79145C22.3999 3.28892 22.1752 3.76602 21.7753 4.11778L9.69776 14.7394C9.09647 15.2679 8.35497 15.6564 7.54021 15.8697L4.48643 16.6699L5.39631 13.9842C5.63888 13.2677 6.08058 12.6156 6.68151 12.0868L16.8403 3.15354ZM16.8403 3.15354L19.8406 5.7922M18.1346 12.6689V17.4201C18.1346 18.017 17.865 18.5894 17.3851 19.0115C16.9052 19.4335 16.2543 19.6707 15.5756 19.6707H3.63342C2.95472 19.6707 2.30382 19.4335 1.82391 19.0115C1.344 18.5894 1.07439 18.017 1.07439 17.4201V6.91748C1.07439 6.32059 1.344 5.74816 1.82391 5.32609C2.30382 4.90403 2.95472 4.66692 3.63342 4.66692H9.03582" stroke="#0E24EB" stroke-width="1.5" stroke-linecap="round" stroke-linejoin="round"/>
</svg>
